<?xml version="1.0" standalone="no"?>
<!DOCTYPE svg PUBLIC "-//W3C//DTD SVG 20010904//EN"
 "http://www.w3.org/TR/2001/REC-SVG-20010904/DTD/svg10.dtd">
<svg version="1.0" xmlns="http://www.w3.org/2000/svg"
 width="200.000000pt" height="200.000000pt" viewBox="0 0 200.000000 200.000000"
 preserveAspectRatio="xMidYMid meet">
<metadata>
Created by potrace 1.11, written by Peter Selinger 2001-2013
</metadata>
<g transform="translate(0.000000,200.000000) scale(0.100000,-0.100000)"
fill="#000000" stroke="none">
<path d="M160 1145 c0 -26 23 -53 143 -173 123 -123 148 -143 171 -140 24 3
13 16 -144 173 -158 158 -170 168 -170 140z"/>
<path d="M634 1160 c-32 -13 -72 -66 -85 -113 -12 -47 -6 -105 18 -155 21 -45
89 -77 140 -67 42 8 73 25 73 42 0 21 -17 23 -56 7 -35 -15 -41 -15 -71 0 -57
27 -80 116 -49 191 20 48 55 67 113 63 37 -2 48 0 51 13 5 27 -84 39 -134 19z"/>
<path d="M838 1140 c-26 -26 -30 -36 -25 -66 8 -46 20 -60 79 -90 51 -26 73
-54 63 -83 -9 -28 -55 -44 -90 -31 -31 12 -51 1 -42 -23 14 -37 133 -26 162
16 19 27 20 86 1 113 -8 11 -37 30 -65 44 -36 16 -53 31 -58 48 -10 42 8 57
66 56 43 -2 51 1 51 16 0 22 -19 30 -72 30 -31 0 -46 -7 -70 -30z"/>
<path d="M1097 1152 c-46 -28 -70 -91 -65 -172 4 -80 24 -115 82 -144 48 -23
95 -15 141 25 55 49 69 162 28 242 -31 61 -126 86 -186 49z m115 -33 c46 -24
63 -134 30 -199 -33 -67 -107 -75 -143 -16 -22 36 -26 143 -7 179 24 45 74 60
120 36z"/>
<path d="M1350 1000 c0 -163 1 -170 20 -170 18 0 20 7 20 80 l0 80 60 0 c53 0
60 2 60 20 0 16 -8 19 -57 22 l-58 3 0 45 0 45 80 1 c71 1 80 4 80 20 0 17
-10 19 -102 22 l-103 3 0 -171z"/>
<path d="M1580 1148 c0 -21 4 -23 50 -20 l50 4 0 -151 0 -151 25 0 25 0 0 150
0 150 56 0 c47 0 55 3 52 18 -3 15 -19 17 -131 20 -126 3 -127 2 -127 -20z"/>
<path d="M160 1025 c0 -25 16 -46 84 -114 69 -68 88 -82 110 -79 25 3 20 10
-84 113 -105 104 -110 108 -110 80z"/>
<path d="M160 904 c0 -40 38 -77 74 -72 27 3 26 4 -23 53 l-51 49 0 -30z"/>
</g>
</svg>
